HIERARCHY
ROOT Spine
{
    OFFSET 0.0 0.0 -0.0
    CHANNELS 6 Xposition Yposition Zposition Zrotation Xrotation Yrotation
    JOINT ShoulderCenter
    {
        OFFSET 0.0 21.694473266601562 0.0
        CHANNELS 3 Zrotation Xrotation Yrotation
        JOINT LeftShoulder
        {
            OFFSET 16.088502883911133 0.0 0.0
            CHANNELS 3 Zrotation Xrotation Yrotation
            JOINT LeftElbow
            {
                OFFSET 23.002737045288086 0.0 0.0
                CHANNELS 3 Zrotation Xrotation Yrotation
                JOINT LeftHand
                {
                    OFFSET 24.012170791625977 0.0 0.0
                    CHANNELS 3 Zrotation Xrotation Yrotation
                    End Site
                    {
                        OFFSET 9.604867935180664 0.0 0.0
                    }
                }
            }
        }
        JOINT RightShoulder
        {
            OFFSET -16.088502883911133 0.0 0.0
            CHANNELS 3 Zrotation Xrotation Yrotation
            JOINT RightElbow
            {
                OFFSET -23.002737045288086 0.0 0.0
                CHANNELS 3 Zrotation Xrotation Yrotation
                JOINT RightHand
                {
                    OFFSET -24.012170791625977 0.0 0.0
                    CHANNELS 3 Zrotation Xrotation Yrotation
                    End Site
                    {
                        OFFSET -9.604867935180664 0.0 0.0
                    }
                }
            }
        }
        End Site
        {
            OFFSET 0.0 8.677789688110352 0.0
        }
    }
    JOINT LeftHip
    {
        OFFSET 21.20477676329255 -21.20477676329255 0.0
        CHANNELS 3 Zrotation Xrotation Yrotation
        JOINT LeftKnee
        {
            OFFSET 0.0 -31.9301815032959 0.0
            CHANNELS 3 Zrotation Xrotation Yrotation
            JOINT LeftFoot
            {
                OFFSET 0.0 -37.57223129272461 0.0
                CHANNELS 3 Zrotation Xrotation Yrotation
                End Site
                {
                    OFFSET 0.0 0.0 15.028891563415527
                }
            }
        }
    }
    JOINT RightHip
    {
        OFFSET -21.20477676329255 -21.20477676329255 0.0
        CHANNELS 3 Zrotation Xrotation Yrotation
        JOINT RightKnee
        {
            OFFSET 0.0 -31.9301815032959 0.0
            CHANNELS 3 Zrotation Xrotation Yrotation
            JOINT RightFoot
            {
                OFFSET 0.0 -37.57223129272461 0.0
                CHANNELS 3 Zrotation Xrotation Yrotation
                End Site
                {
                    OFFSET 0.0 0.0 15.028891563415527
                }
            }
        }
    }
}
MOTION
Frames: 10
Frame Time: 0.03333333333333333
-0.7888999581336975 15.931500434875488 -260.214599609375 -7.245028323782599 15.700284879211544 -179.48772752237488 -3.7424568441057886e-07 2.2051864024561765e-06 -2.374432454705662 -69.05245047950729 -63.46784692071871 7.917301305042594 1.2924152558788402e-07 1.6022748955403803e-06 21.024432963188385 3.1805546814635168e-15 0.0 0.0 49.12664883593051 31.46473101272075 -57.07089677503756 1.8657471272782217e-06 3.8458108888519633e-07 -116.94840000867694 6.3611093629270335e-15 -1.3241718894150476e-31 -2.3854160110976376e-15 -1.7796515057742577 8.615784783973808 3.7468236905070067 -1.818596341513922 24.665310717258606 -55.102764312219456 -7.951386703658791e-16 3.1805546814635168e-15 -2.4848083448933726e-15 -13.217926399846723 10.219458757273554 26.387357914585774 8.43141161452532 18.667315213284418 59.740380104438344 8.551943452472182e-32 -1.5902773407317584e-15 6.1623246953355635e-15
-0.6194000244140625 15.64680004119873 -260.1277160644531 -7.5008167667902095 15.710589122868848 -179.74273097383497 3.49960207747311e-08 -1.4067171647140394e-07 -1.7713155470042958 -70.71106380392366 -57.8663096485736 6.028621406298766 1.0109566810748043e-06 3.4623568401600467e-06 23.356454948797104 -1.5902773407317584e-15 0.0 0.0 41.70538978138026 25.54995380808795 -53.44810026512651 -6.972291897786146e-07 6.477108586499543e-07 -104.61997255419303 -6.3611093629270335e-15 -2.758691436281349e-32 4.969616689786745e-16 -2.036758802997473 8.717682770708635 2.764439518174523 -2.5468196286215776 24.827236106836587 -53.21817315348034 0.0 0.0 1.987846675914698e-16 -13.551121731839833 10.278517542663122 36.54546770602916 11.490496879625741 17.192883625642537 51.12169523572389 6.896728590703373e-33 1.590277340731758e-15 -4.969616689786744e-16
-0.35590001940727234 15.098699569702148 -260.7820129394531 -7.707628437654188 16.333511007025486 -178.5822604488107 4.5536018989621456e-07 -1.1491925841885785e-07 -2.840465775653144 -71.17429335204875 -58.98614480359505 5.401476926221523 3.127747988517538e-07 -5.263237052787059e-07 22.5258765372745 -7.95138670365879e-15 -2.2069531490250793e-31 3.1805546814635164e-15 40.91713809066186 25.055146914040574 -53.054878185910184 1.2202430732524938e-06 7.411093315128674e-07 -106.08111016457424 0.0 0.0 4.969616689786744e-16 -1.7484524384356737 9.70615015502021 -1.590494303104477 -4.490719030706455 24.062916448863948 -48.43152288599043 -7.951386703658792e-16 -2.2069531490250793e-32 3.1805546814635168e-15 -13.38069604628301 10.828058136903818 57.908271939229785 18.097255954912985 12.30641424885307 29.963720160806893 -9.103681739728452e-32 -1.5902773407317584e-15 -6.5598940305185035e-15
-0.453499972820282 14.834099769592285 -260.6011047363281 -7.7405641326767665 16.206112744628896 179.5158938291303 6.755073755317113e-07 -2.3066251457684878e-07 -1.2877264360045506 -71.0960524603833 -57.10589009818159 5.288186927713416 -2.764466358374815e-06 -1.3670699284999593e-06 26.066371469566175 6.3611093629270335e-15 -3.1805546814635176e-15 -9.54166404439055e-15 37.407329594908944 23.379618401990925 -53.8689768503287 3.7426134048343295e-06 -1.0579009017690151e-06 -98.05304314215824 0.0 0.0 1.5902773407317584e-15 -2.2841088018758295 9.61239370931866 -0.8520001116881184 -4.874160152804404 23.694783826813126 -46.89736643534188 7.951386703658792e-16 3.4483642953516864e-33 4.969616689786745e-16 -14.17561525553584 10.04527310799911 64.10195962518937 19.305031623599785 10.74913523816099 26.55211337535871 -1.5902773407317582e-15 3.586298867165754e-32 -2.584200678689107e-15
-0.5175999999046326 14.870699882507324 -260.6470947265625 -7.1407996661135975 15.508156820428422 179.24606347296285 1.7164647871018468e-07 1.118112253839476e-06 -1.1877257581422935 -71.13188335039031 -57.76251735442473 4.458329302741536 -3.2770302370620837e-06 1.5443900753482545e-06 25.6894405659431 3.180554681463516e-15 6.3611093629270335e-15 9.54166404439055e-15 34.64482187036564 20.03524222845343 -51.852654291013366 3.0871717285855024e-06 7.2799312470988e-07 -95.26696485274037 0.0 0.0 -7.156248033292914e-15 -1.7265360655110427 8.972201265119487 -0.44304798689955976 -4.7750739346078 23.83661718329283 -47.39019827714802 7.951386703658792e-16 -3.4483642953516866e-32 -4.969616689786745e-15 -13.623598091714541 9.29517582080178 56.80237697442902 18.024892354972494 13.25864348208263 33.70857356117304 1.5902773407317584e-15 1.5902773407317584e-15 6.3611093629270335e-15
-0.564300000667572 14.86780071258545 -260.74407958984375 -7.031490228791088 15.211833968069405 179.29754849033486 -2.713122115203358e-07 2.689477892803079e-07 -1.2347717150741482 -71.51356426906274 -54.92103039261994 3.9555813428488173 -2.726366514190802e-06 6.709016744887927e-06 24.734644112076683 -9.54166404439055e-15 -3.1805546814635164e-15 -3.1805546814635168e-15 32.77877422867702 17.90090682651282 -48.65149530907507 2.8565139924804037e-06 -2.4314067266698025e-06 -95.69689102613597 -1.1586504032381667e-31 1.5902773407317582e-15 8.34895603884173e-15 -1.5403403269967098 8.713925768957697 0.029727890045682253 -4.65484233079132 23.88241571050869 -47.8602793518983 7.951386703658792e-16 6.896728590703373e-33 9.93923337957349e-16 -13.52785024330969 9.038567499022893 50.80910240482667 16.603673736823435 14.97250127536749 39.425181206787734 -1.5902773407317584e-15 -2.4828222926532145e-32 1.7890620083232284e-15
-0.6119999885559082 14.90820026397705 -260.7455139160156 -6.693989052398461 14.88853401836362 179.57751546940594 1.5563428506920978e-08 6.352772552504629e-07 -1.2505812187253385 -71.39726364654278 -51.76911916622711 4.112431298698497 -1.1321958509275254e-07 -1.8152547183157165e-07 25.230261589864813 -9.541664044390549e-15 -2.648343778830095e-31 3.1805546814635164e-15 30.728279845001314 13.686051037894538 -46.84987250064853 2.7822672595603513e-07 -1.0560157652217933e-06 -91.83512883203908 -1.9862578341225716e-31 3.1805546814635168e-15 7.156248033292914e-15 -0.9922390458245754 8.486288954747408 0.7018857195613607 -4.468905737065455 23.846078508206716 -48.60325610042444 -7.951386703658791e-16 -6.207055731633036e-33 8.94531004161614e-16 -13.006763547953554 8.753792599867854 27.646092896512346 9.303648365967762 20.333450341245932 62.717704944620046 0.0 0.0 3.975693351829396e-15
-0.6474000215530396 15.117600440979004 -260.5856018066406 -6.456092333433219 14.516814810834482 179.2386515942997 -2.5345578557143786e-07 5.186970890419663e-07 0.1771641675871033 -70.56310250140588 -51.95382363555449 5.123853947001182 2.690291389899021e-06 -2.760465841807388e-06 24.78966410301768 3.1805546814635168e-15 -8.827812596100317e-32 -3.1805546814635168e-15 32.7456205334981 7.722371097725796 -47.75090372010014 -3.612937580500852e-07 -9.137156610132012e-07 -85.91516148866039 3.1805546814635164e-15 1.5902773407317584e-15 7.156248033292912e-15 -0.5776580131875363 8.056331154185147 4.304798755660207 -3.174870318382194 23.63436239747143 -51.404096934462736 0.0 0.0 4.969616689786745e-16 -12.349031271552036 7.7612491966406765 -33.32417115684198 -14.504192121846152 17.32138570866214 126.61220552662309 1.5902773407317584e-15 1.1862373176009802e-31 8.547740706433202e-15
-0.8166999816894531 15.594799995422363 -260.83868408203125 -5.35926230057998 12.982845010337519 179.84163358604764 -7.342346821209931e-08 -4.938584296760582e-07 4.418702199939128 -73.10264095796154 -46.50585689191715 1.0393261851287479 1.3381547908210363e-06 7.806431584440125e-06 23.911742301020137 1.5902773407317584e-15 -3.1805546814635168e-15 3.1805546814635168e-15 41.048530102743086 -5.11705487078303 -43.79492115438648 1.188901097815236e-06 5.662926453574802e-07 -89.58614020583184 -3.1805546814635168e-15 -3.1805546814635168e-15 -8.827812596100317e-32 0.7404926119559835 6.343123243861148 7.813786277825025 -1.3643778696236892 23.928662839253242 -56.151512701702906 -2.3173008064763334e-31 -3.1805546814635168e-15 -8.348956038841732e-15 -10.994179934662517 6.57689323972262 -33.064439709400915 -14.103419969240232 17.513539947859098 123.97682480997327 -9.103681739728452e-32 -1.5902773407317584e-15 -6.5598940305185035e-15
-1.0626999139785767 16.238500595092773 -260.8048095703125 -4.671467450841718 11.838498999458826 -178.71408721524335 -4.6170868100799075e-07 1.3568923861884672e-06 1.9452931972373344 -72.70577620641163 -46.866054559319515 2.207824873343784 3.3730657952922815e-06 -2.289769209181331e-06 24.314769071155933 4.770832022195275e-15 -3.1805546814635168e-15 -3.1805546814635168e-15 33.05490625822387 -15.409491394901726 -30.583410211061732 5.616957856839599e-06 4.183495633334924e-07 -84.90285905182562 0.0 0.0 -7.951386703658792e-15 1.3198949548928385 4.307100032209788 17.16192102787851 3.696616362206974 23.681119036117405 -66.09121170280298 5.241513728934563e-32 -1.5902773407317584e-15 3.776908684237926e-15 -10.218012592758933 5.237641047069052 -47.99415554269239 -17.470819378623318 14.122281027507261 134.58180280955767 1.590277340731758e-15 8.827812596100317e-32 6.361109362927032e-15
